<svg width="1958" height="309" viewBox="0 0 1958 309" fill="none" xmlns="http://www.w3.org/2000/svg">
<path d="M570 2.5V156.5H716.906L715.223 158.869L687.774 197.5H521.5V2.5H570Z" fill="white" stroke="black" stroke-width="3"/>
<path d="M362.872 156.5L361.231 158.857L333.731 198.357L333.283 199H219.628L221.269 196.643L248.769 157.143L249.217 156.5H362.872Z" fill="#FFB121" stroke="black" stroke-width="3"/>
<path d="M48.5 1.5V84.2139L143.518 1.86621L143.94 1.5H207.443L204.497 4.12109L101.72 95.5322L207.029 194.909L209.775 197.5H143.894L143.457 197.078L67.4912 123.578L48.5 141.644V197.5H1.5V1.5H48.5Z" fill="white" stroke="black" stroke-width="3"/>
<path d="M365.701 5.10156L507.701 195.102L509.494 197.5H452.755L452.305 196.905L364.545 81.043L330.228 129.862L329.779 130.5H271.034L272.792 128.111L363.292 5.11133L364.49 3.48145L365.701 5.10156Z" fill="white" stroke="black" stroke-width="3"/>
<path d="M860.372 156.5L858.731 158.857L831.231 198.357L830.783 199H717.128L718.769 196.643L746.269 157.143L746.717 156.5H860.372Z" fill="#FFB121" stroke="black" stroke-width="3"/>
<path d="M863.201 5.10156L1005.2 195.102L1006.99 197.5H950.255L949.805 196.905L862.045 81.043L827.728 129.862L827.279 130.5H768.534L770.292 128.111L860.792 5.11133L861.99 3.48145L863.201 5.10156Z" fill="white" stroke="black" stroke-width="3"/>
<path d="M1705 5.5V7C1705 5.56153 1705 5.50242 1705 5.5H1864C1883.44 5.5 1899.93 13.8172 1911.72 24.9727C1923.48 36.0959 1930.72 50.1787 1931.5 61.9004C1932.27 73.455 1929.69 83.9335 1923.03 93.248C1916.64 102.182 1906.56 109.942 1892.31 116.589L1953.2 198.103L1954.99 200.5H1898.25L1897.8 199.898L1840.25 123H1790.26L1789.81 122.41L1760.81 84.4102L1758.97 82H1762H1762H1854C1864.58 82 1870.89 79.778 1874.55 76.4521C1878.18 73.1603 1879.5 68.5272 1879.5 63C1879.5 57.6047 1877.76 53.4722 1874.03 50.6309C1870.22 47.7298 1864.1 46 1855 46H1731C1731 45.9983 1731 45.9479 1731 44.5V46H1730.21L1729.77 45.3545L1703.77 7.85449L1702.13 5.5H1705Z" fill="#FFB121" stroke="black" stroke-width="3"/>
<path d="M1373.5 121.5H1491C1525.66 121.5 1552.5 96.4886 1552.5 68C1552.5 39.8474 1530.49 4.5 1487 4.5H1323.5V197.596L1325.09 197.495L1336.97 196.745L1348.75 196.002L1371.91 197.495L1373.5 197.598V121.5ZM1373.5 47.5762H1487L1487.51 47.583C1492.68 47.7299 1496.09 50.1285 1498.27 53.2666C1500.56 56.5718 1501.5 60.7375 1501.5 63.998C1501.5 67.3631 1500.89 71.3378 1499.24 74.4131C1497.63 77.4061 1495.09 79.498 1491 79.498H1373.5V47.5762Z" fill="white" stroke="black" stroke-width="3"/>
<path d="M1666.26 5.5L1666.71 6.11328L1694.21 43.6133L1695.96 46H1620.5V83H1723.24L1723.69 83.5898L1751.19 119.59L1753.03 122H1620.5V160H1828.76L1829.21 160.61L1855.71 196.61L1857.47 199H1570.5V5.5H1666.26Z" fill="white" stroke="black" stroke-width="3"/>
<path d="M1074.87 4.5L1075.3 5.25586L1154.48 143.945L1231.69 5.27051L1232.12 4.5H1297V200H1243V80.3555L1177.82 199.222L1177.39 200H1133.63L1133.2 199.249L1064.5 80.1045V200H1014.5V4.5H1074.87Z" fill="white" stroke="black" stroke-width="3"/>
<mask id="path-11-outside-1_188_47" maskUnits="userSpaceOnUse" x="1" y="242" width="1613" height="55" fill="black">
<rect fill="white" x="1" y="242" width="1613" height="55"/>
<path d="M22.776 293.512C19.3627 293.512 16.0987 293 12.984 291.976C9.86933 290.909 7.416 289.544 5.624 287.88L7.992 282.888C9.69867 284.381 11.8747 285.619 14.52 286.6C17.1653 287.581 19.9173 288.072 22.776 288.072C25.3787 288.072 27.4907 287.773 29.112 287.176C30.7333 286.579 31.928 285.768 32.696 284.744C33.464 283.677 33.848 282.483 33.848 281.16C33.848 279.624 33.336 278.387 32.312 277.448C31.3307 276.509 30.0293 275.763 28.408 275.208C26.8293 274.611 25.08 274.099 23.16 273.672C21.24 273.245 19.2987 272.755 17.336 272.2C15.416 271.603 13.6453 270.856 12.024 269.96C10.4453 269.064 9.16533 267.869 8.184 266.376C7.20267 264.84 6.712 262.877 6.712 260.488C6.712 258.184 7.30933 256.072 8.504 254.152C9.74133 252.189 11.6187 250.632 14.136 249.48C16.696 248.285 19.9387 247.688 23.864 247.688C26.4667 247.688 29.048 248.029 31.608 248.712C34.168 249.395 36.3867 250.376 38.264 251.656L36.152 256.776C34.232 255.496 32.2053 254.579 30.072 254.024C27.9387 253.427 25.8693 253.128 23.864 253.128C21.3467 253.128 19.2773 253.448 17.656 254.088C16.0347 254.728 14.84 255.581 14.072 256.648C13.3467 257.715 12.984 258.909 12.984 260.232C12.984 261.811 13.4747 263.069 14.456 264.008C15.48 264.947 16.7813 265.693 18.36 266.248C19.9813 266.803 21.752 267.315 23.672 267.784C25.592 268.211 27.512 268.701 29.432 269.256C31.3947 269.811 33.1653 270.536 34.744 271.432C36.3653 272.328 37.6667 273.523 38.648 275.016C39.6293 276.509 40.12 278.429 40.12 280.776C40.12 283.037 39.5013 285.149 38.264 287.112C37.0267 289.032 35.1067 290.589 32.504 291.784C29.944 292.936 26.7013 293.512 22.776 293.512ZM128.781 293V253.768H113.421V248.2H150.477V253.768H135.117V293H128.781ZM219.454 293L239.742 248.2H246.078L266.43 293H259.71L241.598 251.784H244.158L226.046 293H219.454ZM228.094 281.8L229.822 276.68H255.038L256.894 281.8H228.094ZM344.152 293V248.2H361.624C367.427 248.2 371.992 249.587 375.32 252.36C378.648 255.091 380.312 258.909 380.312 263.816C380.312 267.059 379.566 269.853 378.072 272.2C376.579 274.504 374.446 276.275 371.672 277.512C368.899 278.749 365.55 279.368 361.624 279.368H347.672L350.552 276.424V293H344.152ZM374.104 293L362.712 276.744H369.56L381.08 293H374.104ZM350.552 277.064L347.672 273.928H361.432C365.528 273.928 368.622 273.053 370.712 271.304C372.846 269.512 373.912 267.016 373.912 263.816C373.912 260.616 372.846 258.141 370.712 256.392C368.622 254.643 365.528 253.768 361.432 253.768H347.672L350.552 250.568V277.064ZM469.964 293V253.768H454.604V248.2H491.66V253.768H476.3V293H469.964ZM569.67 293V248.2H601.286V253.768H576.07V287.432H602.182V293H569.67ZM575.494 272.968V267.528H598.534V272.968H575.494ZM683.585 293V248.2H701.057C706.86 248.2 711.425 249.587 714.753 252.36C718.081 255.091 719.745 258.909 719.745 263.816C719.745 267.059 718.998 269.853 717.505 272.2C716.012 274.504 713.878 276.275 711.105 277.512C708.332 278.749 704.982 279.368 701.057 279.368H687.105L689.985 276.424V293H683.585ZM713.537 293L702.145 276.744H708.993L720.513 293H713.537ZM689.985 277.064L687.105 273.928H700.865C704.961 273.928 708.054 273.053 710.145 271.304C712.278 269.512 713.345 267.016 713.345 263.816C713.345 260.616 712.278 258.141 710.145 256.392C708.054 254.643 704.961 253.768 700.865 253.768H687.105L689.985 250.568V277.064Z"/>
<path d="M889.353 293V248.2H909.449C914.611 248.2 918.579 249.245 921.353 251.336C924.126 253.384 925.513 256.2 925.513 259.784C925.513 262.216 924.958 264.264 923.849 265.928C922.782 267.592 921.331 268.872 919.497 269.768C917.662 270.664 915.678 271.112 913.545 271.112L914.697 269.192C917.257 269.192 919.518 269.64 921.481 270.536C923.443 271.432 925.001 272.755 926.153 274.504C927.305 276.211 927.881 278.344 927.881 280.904C927.881 284.744 926.43 287.731 923.529 289.864C920.67 291.955 916.403 293 910.729 293H889.353ZM895.753 287.816H910.473C914.014 287.816 916.723 287.219 918.601 286.024C920.478 284.829 921.417 282.952 921.417 280.392C921.417 277.789 920.478 275.891 918.601 274.696C916.723 273.501 914.014 272.904 910.473 272.904H895.177V267.72H908.873C912.115 267.72 914.633 267.123 916.425 265.928C918.217 264.733 919.113 262.941 919.113 260.552C919.113 258.163 918.217 256.371 916.425 255.176C914.633 253.981 912.115 253.384 908.873 253.384H895.753V287.816ZM1001.98 293L1022.27 248.2H1028.61L1048.96 293H1042.24L1024.13 251.784H1026.69L1008.58 293H1001.98ZM1010.62 281.8L1012.35 276.68H1037.57L1039.42 281.8H1010.62ZM1133.33 293V253.768H1117.97V248.2H1155.02V253.768H1139.66V293H1133.33ZM1242.56 293V253.768H1227.2V248.2H1264.25V253.768H1248.89V293H1242.56ZM1342.26 293V248.2H1373.88V253.768H1348.66V287.432H1374.77V293H1342.26ZM1348.09 272.968V267.528H1371.13V272.968H1348.09ZM1456.18 293V248.2H1473.65C1479.45 248.2 1484.02 249.587 1487.35 252.36C1490.67 255.091 1492.34 258.909 1492.34 263.816C1492.34 267.059 1491.59 269.853 1490.1 272.2C1488.6 274.504 1486.47 276.275 1483.7 277.512C1480.92 278.749 1477.57 279.368 1473.65 279.368H1459.7L1462.58 276.424V293H1456.18ZM1486.13 293L1474.74 276.744H1481.59L1493.11 293H1486.13ZM1462.58 277.064L1459.7 273.928H1473.46C1477.55 273.928 1480.65 273.053 1482.74 271.304C1484.87 269.512 1485.94 267.016 1485.94 263.816C1485.94 260.616 1484.87 258.141 1482.74 256.392C1480.65 254.643 1477.55 253.768 1473.46 253.768H1459.7L1462.58 250.568V277.064ZM1583.91 293V275.848L1585.38 279.816L1566.12 248.2H1572.96L1589.16 274.888H1585.44L1601.7 248.2H1608.04L1588.84 279.816L1590.24 275.848V293H1583.91Z"/>
</mask>
<path d="M22.776 293.512C19.3627 293.512 16.0987 293 12.984 291.976C9.86933 290.909 7.416 289.544 5.624 287.88L7.992 282.888C9.69867 284.381 11.8747 285.619 14.52 286.6C17.1653 287.581 19.9173 288.072 22.776 288.072C25.3787 288.072 27.4907 287.773 29.112 287.176C30.7333 286.579 31.928 285.768 32.696 284.744C33.464 283.677 33.848 282.483 33.848 281.16C33.848 279.624 33.336 278.387 32.312 277.448C31.3307 276.509 30.0293 275.763 28.408 275.208C26.8293 274.611 25.08 274.099 23.16 273.672C21.24 273.245 19.2987 272.755 17.336 272.2C15.416 271.603 13.6453 270.856 12.024 269.96C10.4453 269.064 9.16533 267.869 8.184 266.376C7.20267 264.84 6.712 262.877 6.712 260.488C6.712 258.184 7.30933 256.072 8.504 254.152C9.74133 252.189 11.6187 250.632 14.136 249.48C16.696 248.285 19.9387 247.688 23.864 247.688C26.4667 247.688 29.048 248.029 31.608 248.712C34.168 249.395 36.3867 250.376 38.264 251.656L36.152 256.776C34.232 255.496 32.2053 254.579 30.072 254.024C27.9387 253.427 25.8693 253.128 23.864 253.128C21.3467 253.128 19.2773 253.448 17.656 254.088C16.0347 254.728 14.84 255.581 14.072 256.648C13.3467 257.715 12.984 258.909 12.984 260.232C12.984 261.811 13.4747 263.069 14.456 264.008C15.48 264.947 16.7813 265.693 18.36 266.248C19.9813 266.803 21.752 267.315 23.672 267.784C25.592 268.211 27.512 268.701 29.432 269.256C31.3947 269.811 33.1653 270.536 34.744 271.432C36.3653 272.328 37.6667 273.523 38.648 275.016C39.6293 276.509 40.12 278.429 40.12 280.776C40.12 283.037 39.5013 285.149 38.264 287.112C37.0267 289.032 35.1067 290.589 32.504 291.784C29.944 292.936 26.7013 293.512 22.776 293.512ZM128.781 293V253.768H113.421V248.2H150.477V253.768H135.117V293H128.781ZM219.454 293L239.742 248.2H246.078L266.43 293H259.71L241.598 251.784H244.158L226.046 293H219.454ZM228.094 281.8L229.822 276.68H255.038L256.894 281.8H228.094ZM344.152 293V248.2H361.624C367.427 248.2 371.992 249.587 375.32 252.36C378.648 255.091 380.312 258.909 380.312 263.816C380.312 267.059 379.566 269.853 378.072 272.2C376.579 274.504 374.446 276.275 371.672 277.512C368.899 278.749 365.55 279.368 361.624 279.368H347.672L350.552 276.424V293H344.152ZM374.104 293L362.712 276.744H369.56L381.08 293H374.104ZM350.552 277.064L347.672 273.928H361.432C365.528 273.928 368.622 273.053 370.712 271.304C372.846 269.512 373.912 267.016 373.912 263.816C373.912 260.616 372.846 258.141 370.712 256.392C368.622 254.643 365.528 253.768 361.432 253.768H347.672L350.552 250.568V277.064ZM469.964 293V253.768H454.604V248.2H491.66V253.768H476.3V293H469.964ZM569.67 293V248.2H601.286V253.768H576.07V287.432H602.182V293H569.67ZM575.494 272.968V267.528H598.534V272.968H575.494ZM683.585 293V248.2H701.057C706.86 248.2 711.425 249.587 714.753 252.36C718.081 255.091 719.745 258.909 719.745 263.816C719.745 267.059 718.998 269.853 717.505 272.2C716.012 274.504 713.878 276.275 711.105 277.512C708.332 278.749 704.982 279.368 701.057 279.368H687.105L689.985 276.424V293H683.585ZM713.537 293L702.145 276.744H708.993L720.513 293H713.537ZM689.985 277.064L687.105 273.928H700.865C704.961 273.928 708.054 273.053 710.145 271.304C712.278 269.512 713.345 267.016 713.345 263.816C713.345 260.616 712.278 258.141 710.145 256.392C708.054 254.643 704.961 253.768 700.865 253.768H687.105L689.985 250.568V277.064Z" fill="white"/>
<path d="M889.353 293V248.2H909.449C914.611 248.2 918.579 249.245 921.353 251.336C924.126 253.384 925.513 256.2 925.513 259.784C925.513 262.216 924.958 264.264 923.849 265.928C922.782 267.592 921.331 268.872 919.497 269.768C917.662 270.664 915.678 271.112 913.545 271.112L914.697 269.192C917.257 269.192 919.518 269.64 921.481 270.536C923.443 271.432 925.001 272.755 926.153 274.504C927.305 276.211 927.881 278.344 927.881 280.904C927.881 284.744 926.43 287.731 923.529 289.864C920.67 291.955 916.403 293 910.729 293H889.353ZM895.753 287.816H910.473C914.014 287.816 916.723 287.219 918.601 286.024C920.478 284.829 921.417 282.952 921.417 280.392C921.417 277.789 920.478 275.891 918.601 274.696C916.723 273.501 914.014 272.904 910.473 272.904H895.177V267.72H908.873C912.115 267.72 914.633 267.123 916.425 265.928C918.217 264.733 919.113 262.941 919.113 260.552C919.113 258.163 918.217 256.371 916.425 255.176C914.633 253.981 912.115 253.384 908.873 253.384H895.753V287.816ZM1001.98 293L1022.27 248.2H1028.61L1048.96 293H1042.24L1024.13 251.784H1026.69L1008.58 293H1001.98ZM1010.62 281.8L1012.35 276.68H1037.57L1039.42 281.8H1010.62ZM1133.33 293V253.768H1117.97V248.2H1155.02V253.768H1139.66V293H1133.33ZM1242.56 293V253.768H1227.2V248.2H1264.25V253.768H1248.89V293H1242.56ZM1342.26 293V248.2H1373.88V253.768H1348.66V287.432H1374.77V293H1342.26ZM1348.09 272.968V267.528H1371.13V272.968H1348.09ZM1456.18 293V248.2H1473.65C1479.45 248.2 1484.02 249.587 1487.35 252.36C1490.67 255.091 1492.34 258.909 1492.34 263.816C1492.34 267.059 1491.59 269.853 1490.1 272.2C1488.6 274.504 1486.47 276.275 1483.7 277.512C1480.92 278.749 1477.57 279.368 1473.65 279.368H1459.7L1462.58 276.424V293H1456.18ZM1486.13 293L1474.74 276.744H1481.59L1493.11 293H1486.13ZM1462.58 277.064L1459.7 273.928H1473.46C1477.55 273.928 1480.65 273.053 1482.74 271.304C1484.87 269.512 1485.94 267.016 1485.94 263.816C1485.94 260.616 1484.87 258.141 1482.74 256.392C1480.65 254.643 1477.55 253.768 1473.46 253.768H1459.7L1462.58 250.568V277.064ZM1583.91 293V275.848L1585.38 279.816L1566.12 248.2H1572.96L1589.16 274.888H1585.44L1601.7 248.2H1608.04L1588.84 279.816L1590.24 275.848V293H1583.91Z" fill="#FFB121"/>
<path d="M12.984 291.976L12.012 294.814L12.0295 294.82L12.047 294.826L12.984 291.976ZM5.624 287.88L2.91349 286.594L1.97076 288.582L3.58265 290.078L5.624 287.88ZM7.992 282.888L9.96751 280.63L6.98182 278.018L5.28149 281.602L7.992 282.888ZM14.52 286.6L13.4766 289.413H13.4766L14.52 286.6ZM29.112 287.176L30.1491 289.991H30.1491L29.112 287.176ZM32.696 284.744L35.096 286.544L35.1135 286.521L35.1306 286.497L32.696 284.744ZM32.312 277.448L30.2383 279.616L30.2614 279.638L30.2848 279.659L32.312 277.448ZM28.408 275.208L27.3463 278.014L27.3914 278.031L27.4369 278.046L28.408 275.208ZM23.16 273.672L23.8108 270.743V270.743L23.16 273.672ZM17.336 272.2L16.4448 275.065L16.4823 275.076L16.5201 275.087L17.336 272.2ZM12.024 269.96L10.5432 272.569L10.558 272.577L10.5729 272.586L12.024 269.96ZM8.184 266.376L5.65591 267.991L5.66629 268.007L5.67688 268.024L8.184 266.376ZM8.504 254.152L5.96622 252.552L5.9615 252.56L5.95683 252.567L8.504 254.152ZM14.136 249.48L15.3844 252.208L15.3945 252.203L15.4047 252.199L14.136 249.48ZM38.264 251.656L41.0373 252.8L41.9658 250.549L39.954 249.177L38.264 251.656ZM36.152 256.776L34.4879 259.272L37.5308 261.301L38.9253 257.92L36.152 256.776ZM30.072 254.024L29.2631 256.913L29.29 256.92L29.3171 256.927L30.072 254.024ZM14.072 256.648L11.6374 254.895L11.6139 254.928L11.5912 254.961L14.072 256.648ZM14.456 264.008L12.3823 266.176L12.4053 266.198L12.4288 266.219L14.456 264.008ZM18.36 266.248L17.3655 269.078L17.3772 269.082L17.3889 269.086L18.36 266.248ZM23.672 267.784L22.9596 270.698L22.9903 270.706L23.0212 270.713L23.672 267.784ZM29.432 269.256L28.5994 272.138L28.6077 272.141L28.6161 272.143L29.432 269.256ZM34.744 271.432L33.2632 274.041L33.278 274.049L33.2929 274.058L34.744 271.432ZM38.648 275.016L41.1551 273.368H41.1551L38.648 275.016ZM38.264 287.112L40.7857 288.737L40.7938 288.725L40.8018 288.712L38.264 287.112ZM32.504 291.784L33.7351 294.52L33.7453 294.515L33.7555 294.51L32.504 291.784ZM22.776 293.512V290.512C19.6678 290.512 16.721 290.047 13.921 289.126L12.984 291.976L12.047 294.826C15.4764 295.953 19.0576 296.512 22.776 296.512V293.512ZM12.984 291.976L13.956 289.138C11.1085 288.163 9.06268 286.979 7.66535 285.682L5.624 287.88L3.58265 290.078C5.76932 292.109 8.63015 293.656 12.012 294.814L12.984 291.976ZM5.624 287.88L8.33451 289.166L10.7025 284.174L7.992 282.888L5.28149 281.602L2.91349 286.594L5.624 287.88ZM7.992 282.888L6.01649 285.146C8.05542 286.93 10.5698 288.334 13.4766 289.413L14.52 286.6L15.5634 283.787C13.1795 282.903 11.3419 281.833 9.96751 280.63L7.992 282.888ZM14.52 286.6L13.4766 289.413C16.4603 290.52 19.566 291.072 22.776 291.072V288.072V285.072C20.2687 285.072 17.8704 284.643 15.5634 283.787L14.52 286.6ZM22.776 288.072V291.072C25.5715 291.072 28.0723 290.756 30.1491 289.991L29.112 287.176L28.0749 284.361C26.9091 284.79 25.1858 285.072 22.776 285.072V288.072ZM29.112 287.176L30.1491 289.991C32.1284 289.262 33.8793 288.166 35.096 286.544L32.696 284.744L30.296 282.944C29.9767 283.37 29.3383 283.896 28.0749 284.361L29.112 287.176ZM32.696 284.744L35.1306 286.497C36.2687 284.916 36.848 283.108 36.848 281.16H33.848H30.848C30.848 281.858 30.6593 282.438 30.2614 282.991L32.696 284.744ZM33.848 281.16H36.848C36.848 278.882 36.0524 276.807 34.3392 275.237L32.312 277.448L30.2848 279.659C30.6196 279.966 30.848 280.366 30.848 281.16H33.848ZM32.312 277.448L34.3857 275.28C33.0187 273.973 31.3077 273.029 29.3791 272.37L28.408 275.208L27.4369 278.046C28.7509 278.496 29.6426 279.046 30.2383 279.616L32.312 277.448ZM28.408 275.208L29.4697 272.402C27.7374 271.747 25.8483 271.196 23.8108 270.743L23.16 273.672L22.5092 276.601C24.3117 277.001 25.9212 277.475 27.3463 278.014L28.408 275.208ZM23.16 273.672L23.8108 270.743C21.9482 270.33 20.0619 269.853 18.1519 269.313L17.336 272.2L16.5201 275.087C18.5354 275.656 20.5318 276.161 22.5092 276.601L23.16 273.672ZM17.336 272.2L18.2272 269.335C16.4851 268.793 14.9039 268.124 13.4751 267.334L12.024 269.96L10.5729 272.586C12.3867 273.588 14.3469 274.412 16.4448 275.065L17.336 272.2ZM12.024 269.96L13.5048 267.351C12.3328 266.686 11.4071 265.818 10.6911 264.728L8.184 266.376L5.67688 268.024C6.92356 269.921 8.55787 271.442 10.5432 272.569L12.024 269.96ZM8.184 266.376L10.7121 264.761C10.1211 263.836 9.712 262.48 9.712 260.488H6.712H3.712C3.712 263.275 4.28422 265.844 5.65591 267.991L8.184 266.376ZM6.712 260.488H9.712C9.712 258.733 10.1583 257.172 11.0512 255.737L8.504 254.152L5.95683 252.567C4.46036 254.972 3.712 257.635 3.712 260.488H6.712ZM8.504 254.152L11.0418 255.752C11.9123 254.371 13.2934 253.165 15.3844 252.208L14.136 249.48L12.8876 246.752C9.94395 248.099 7.57041 250.008 5.96622 252.552L8.504 254.152ZM14.136 249.48L15.4047 252.199C17.4442 251.247 20.2169 250.688 23.864 250.688V247.688V244.688C19.6604 244.688 15.9478 245.324 12.8673 246.761L14.136 249.48ZM23.864 247.688V250.688C26.201 250.688 28.5226 250.994 30.835 251.611L31.608 248.712L32.381 245.813C29.5734 245.065 26.7323 244.688 23.864 244.688V247.688ZM31.608 248.712L30.835 251.611C33.121 252.22 35.0186 253.074 36.574 254.135L38.264 251.656L39.954 249.177C37.7548 247.678 35.215 246.569 32.381 245.813L31.608 248.712ZM38.264 251.656L35.4907 250.512L33.3787 255.632L36.152 256.776L38.9253 257.92L41.0373 252.8L38.264 251.656ZM36.152 256.776L37.8161 254.28C35.631 252.823 33.2988 251.763 30.8269 251.121L30.072 254.024L29.3171 256.927C31.1118 257.394 32.833 258.169 34.4879 259.272L36.152 256.776ZM30.072 254.024L30.8809 251.135C28.5115 250.472 26.1697 250.128 23.864 250.128V253.128V256.128C25.569 256.128 27.3658 256.382 29.2631 256.913L30.072 254.024ZM23.864 253.128V250.128C21.1231 250.128 18.6455 250.472 16.5545 251.298L17.656 254.088L18.7575 256.878C19.9091 256.424 21.5703 256.128 23.864 256.128V253.128ZM17.656 254.088L16.5545 251.298C14.5691 252.081 12.8343 253.233 11.6374 254.895L14.072 256.648L16.5066 258.401C16.8457 257.93 17.5002 257.375 18.7575 256.878L17.656 254.088ZM14.072 256.648L11.5912 254.961C10.5185 256.539 9.984 258.324 9.984 260.232H12.984H15.984C15.984 259.495 16.1748 258.891 16.5528 258.335L14.072 256.648ZM12.984 260.232H9.984C9.984 262.485 10.7122 264.578 12.3823 266.176L14.456 264.008L16.5297 261.84C16.2371 261.56 15.984 261.137 15.984 260.232H12.984ZM14.456 264.008L12.4288 266.219C13.8062 267.482 15.4809 268.416 17.3655 269.078L18.36 266.248L19.3545 263.418C18.0817 262.97 17.1538 262.411 16.4832 261.797L14.456 264.008ZM18.36 266.248L17.3889 269.086C19.107 269.674 20.9652 270.211 22.9596 270.698L23.672 267.784L24.3844 264.87C22.5388 264.419 20.8556 263.931 19.3311 263.41L18.36 266.248ZM23.672 267.784L23.0212 270.713C24.8792 271.125 26.7385 271.601 28.5994 272.138L29.432 269.256L30.2646 266.374C28.2855 265.802 26.3048 265.296 24.3228 264.855L23.672 267.784ZM29.432 269.256L28.6161 272.143C30.3749 272.64 31.9181 273.278 33.2632 274.041L34.744 271.432L36.2248 268.823C34.4125 267.794 32.4145 266.981 30.2479 266.369L29.432 269.256ZM34.744 271.432L33.2929 274.058C34.5043 274.727 35.4369 275.592 36.1409 276.664L38.648 275.016L41.1551 273.368C39.8964 271.453 38.2264 269.929 36.1951 268.806L34.744 271.432ZM38.648 275.016L36.1409 276.664C36.7141 277.536 37.12 278.834 37.12 280.776H40.12H43.12C43.12 278.024 42.5445 275.483 41.1551 273.368L38.648 275.016ZM40.12 280.776H37.12C37.12 282.456 36.6699 284.015 35.7262 285.512L38.264 287.112L40.8018 288.712C42.3328 286.283 43.12 283.619 43.12 280.776H40.12ZM38.264 287.112L35.7423 285.487C34.8847 286.818 33.4668 288.041 31.2525 289.058L32.504 291.784L33.7555 294.51C36.7465 293.138 39.1686 291.246 40.7857 288.737L38.264 287.112ZM32.504 291.784L31.2729 289.048C29.2218 289.971 26.4347 290.512 22.776 290.512V293.512V296.512C26.9679 296.512 30.6662 295.901 33.7351 294.52L32.504 291.784ZM128.781 293H125.781V296H128.781V293ZM128.781 253.768H131.781V250.768H128.781V253.768ZM113.421 253.768H110.421V256.768H113.421V253.768ZM113.421 248.2V245.2H110.421V248.2H113.421ZM150.477 248.2H153.477V245.2H150.477V248.2ZM150.477 253.768V256.768H153.477V253.768H150.477ZM135.117 253.768V250.768H132.117V253.768H135.117ZM135.117 293V296H138.117V293H135.117ZM128.781 293H131.781V253.768H128.781H125.781V293H128.781ZM128.781 253.768V250.768H113.421V253.768V256.768H128.781V253.768ZM113.421 253.768H116.421V248.2H113.421H110.421V253.768H113.421ZM113.421 248.2V251.2H150.477V248.2V245.2H113.421V248.2ZM150.477 248.2H147.477V253.768H150.477H153.477V248.2H150.477ZM150.477 253.768V250.768H135.117V253.768V256.768H150.477V253.768ZM135.117 253.768H132.117V293H135.117H138.117V253.768H135.117ZM135.117 293V290H128.781V293V296H135.117V293ZM219.454 293L216.721 291.762L214.802 296H219.454V293ZM239.742 248.2V245.2H237.807L237.009 246.962L239.742 248.2ZM246.077 248.2L248.809 246.959L248.01 245.2H246.077V248.2ZM266.43 293V296H271.087L269.161 291.759L266.43 293ZM259.71 293L256.963 294.207L257.751 296H259.71V293ZM241.598 251.784V248.784H237.002L238.851 252.991L241.598 251.784ZM244.158 251.784L246.904 252.991L248.753 248.784H244.158V251.784ZM226.046 293V296H228.004L228.792 294.207L226.046 293ZM228.094 281.8L225.251 280.841L223.915 284.8H228.094V281.8ZM229.822 276.68V273.68H227.668L226.979 275.721L229.822 276.68ZM255.038 276.68L257.858 275.658L257.141 273.68H255.038V276.68ZM256.894 281.8V284.8H261.172L259.714 280.778L256.894 281.8ZM219.454 293L222.186 294.238L242.474 249.438L239.742 248.2L237.009 246.962L216.721 291.762L219.454 293ZM239.742 248.2V251.2H246.077V248.2V245.2H239.742V248.2ZM246.077 248.2L243.346 249.441L263.698 294.241L266.43 293L269.161 291.759L248.809 246.959L246.077 248.2ZM266.43 293V290H259.71V293V296H266.43V293ZM259.71 293L262.456 291.793L244.344 250.577L241.598 251.784L238.851 252.991L256.963 294.207L259.71 293ZM241.598 251.784V254.784H244.158V251.784V248.784H241.598V251.784ZM244.158 251.784L241.411 250.577L223.299 291.793L226.046 293L228.792 294.207L246.904 252.991L244.158 251.784ZM226.046 293V290H219.454V293V296H226.046V293ZM228.094 281.8L230.936 282.759L232.664 277.639L229.822 276.68L226.979 275.721L225.251 280.841L228.094 281.8ZM229.822 276.68V279.68H255.038V276.68V273.68H229.822V276.68ZM255.038 276.68L252.217 277.702L254.073 282.822L256.894 281.8L259.714 280.778L257.858 275.658L255.038 276.68ZM256.894 281.8V278.8H228.094V281.8V284.8H256.894V281.8ZM344.152 293H341.152V296H344.152V293ZM344.152 248.2V245.2H341.152V248.2H344.152ZM375.32 252.36L373.4 254.665L373.409 254.672L373.418 254.679L375.32 252.36ZM378.073 272.2L380.59 273.832L380.597 273.821L380.603 273.811L378.073 272.2ZM371.672 277.512L372.895 280.252V280.252L371.672 277.512ZM347.672 279.368L345.528 277.27L340.541 282.368H347.672V279.368ZM350.552 276.424H353.552V269.067L348.408 274.326L350.552 276.424ZM350.552 293V296H353.552V293H350.552ZM374.104 293L371.648 294.722L372.544 296H374.104V293ZM362.712 276.744V273.744H356.947L360.256 278.466L362.712 276.744ZM369.56 276.744L372.008 275.009L371.111 273.744H369.56V276.744ZM381.081 293V296H386.883L383.528 291.265L381.081 293ZM350.552 277.064L348.343 279.093L353.552 284.766V277.064H350.552ZM347.672 273.928V270.928H340.844L345.463 275.957L347.672 273.928ZM370.712 271.304L372.638 273.605L372.642 273.601L370.712 271.304ZM370.712 256.392L368.787 258.693L368.799 258.702L368.81 258.712L370.712 256.392ZM347.672 253.768L345.443 251.761L340.936 256.768H347.672V253.768ZM350.552 250.568H353.552V242.75L348.323 248.561L350.552 250.568ZM344.152 293H347.152V248.2H344.152H341.152V293H344.152ZM344.152 248.2V251.2H361.625V248.2V245.2H344.152V248.2ZM361.625 248.2V251.2C366.965 251.2 370.77 252.473 373.4 254.665L375.32 252.36L377.241 250.055C373.215 246.7 367.89 245.2 361.625 245.2V248.2ZM375.32 252.36L373.418 254.679C375.949 256.756 377.312 259.667 377.312 263.816H380.312H383.312C383.312 258.152 381.348 253.425 377.223 250.041L375.32 252.36ZM380.312 263.816H377.312C377.312 266.585 376.681 268.799 375.542 270.589L378.073 272.2L380.603 273.811C382.451 270.907 383.312 267.533 383.312 263.816H380.312ZM378.073 272.2L375.555 270.568C374.41 272.335 372.752 273.745 370.45 274.772L371.672 277.512L372.895 280.252C376.14 278.804 378.748 276.673 380.59 273.832L378.073 272.2ZM371.672 277.512L370.45 274.772C368.156 275.796 365.247 276.368 361.625 276.368V279.368V282.368C365.853 282.368 369.642 281.703 372.895 280.252L371.672 277.512ZM361.625 279.368V276.368H347.672V279.368V282.368H361.625V279.368ZM347.672 279.368L349.817 281.466L352.697 278.522L350.552 276.424L348.408 274.326L345.528 277.27L347.672 279.368ZM350.552 276.424H347.552V293H350.552H353.552V276.424H350.552ZM350.552 293V290H344.152V293V296H350.552V293ZM374.104 293L376.561 291.278L365.169 275.022L362.712 276.744L360.256 278.466L371.648 294.722L374.104 293ZM362.712 276.744V279.744H369.56V276.744V273.744H362.712V276.744ZM369.56 276.744L367.113 278.479L378.633 294.735L381.081 293L383.528 291.265L372.008 275.009L369.56 276.744ZM381.081 293V290H374.104V293V296H381.081V293ZM350.552 277.064L352.762 275.035L349.882 271.899L347.672 273.928L345.463 275.957L348.343 279.093L350.552 277.064ZM347.672 273.928V276.928H361.432V273.928V270.928H347.672V273.928ZM361.432 273.928V276.928C365.892 276.928 369.794 275.985 372.638 273.605L370.712 271.304L368.787 269.003C367.45 270.122 365.165 270.928 361.432 270.928V273.928ZM370.712 271.304L372.642 273.601C375.559 271.151 376.913 267.755 376.913 263.816H373.913H370.913C370.913 266.277 370.133 267.873 368.783 269.007L370.712 271.304ZM373.913 263.816H376.913C376.913 259.878 375.558 256.486 372.615 254.072L370.712 256.392L368.81 258.712C370.133 259.797 370.913 261.354 370.913 263.816H373.913ZM370.712 256.392L372.638 254.091C369.794 251.711 365.892 250.768 361.432 250.768V253.768V256.768C365.165 256.768 367.45 257.574 368.787 258.693L370.712 256.392ZM361.432 253.768V250.768H347.672V253.768V256.768H361.432V253.768ZM347.672 253.768L349.902 255.775L352.782 252.575L350.552 250.568L348.323 248.561L345.443 251.761L347.672 253.768ZM350.552 250.568H347.552V277.064H350.552H353.552V250.568H350.552ZM469.964 293H466.964V296H469.964V293ZM469.964 253.768H472.964V250.768H469.964V253.768ZM454.604 253.768H451.604V256.768H454.604V253.768ZM454.604 248.2V245.2H451.604V248.2H454.604ZM491.66 248.2H494.66V245.2H491.66V248.2ZM491.66 253.768V256.768H494.66V253.768H491.66ZM476.299 253.768V250.768H473.299V253.768H476.299ZM476.299 293V296H479.299V293H476.299ZM469.964 293H472.964V253.768H469.964H466.964V293H469.964ZM469.964 253.768V250.768H454.604V253.768V256.768H469.964V253.768ZM454.604 253.768H457.604V248.2H454.604H451.604V253.768H454.604ZM454.604 248.2V251.2H491.66V248.2V245.2H454.604V248.2ZM491.66 248.2H488.66V253.768H491.66H494.66V248.2H491.66ZM491.66 253.768V250.768H476.299V253.768V256.768H491.66V253.768ZM476.299 253.768H473.299V293H476.299H479.299V253.768H476.299ZM476.299 293V290H469.964V293V296H476.299V293ZM569.67 293H566.67V296H569.67V293ZM569.67 248.2V245.2H566.67V248.2H569.67ZM601.286 248.2H604.286V245.2H601.286V248.2ZM601.286 253.768V256.768H604.286V253.768H601.286ZM576.07 253.768V250.768H573.07V253.768H576.07ZM576.07 287.432H573.07V290.432H576.07V287.432ZM602.182 287.432H605.182V284.432H602.182V287.432ZM602.182 293V296H605.182V293H602.182ZM575.494 272.968H572.494V275.968H575.494V272.968ZM575.494 267.528V264.528H572.494V267.528H575.494ZM598.534 267.528H601.534V264.528H598.534V267.528ZM598.534 272.968V275.968H601.534V272.968H598.534ZM569.67 293H572.67V248.2H569.67H566.67V293H569.67ZM569.67 248.2V251.2H601.286V248.2V245.2H569.67V248.2ZM601.286 248.2H598.286V253.768H601.286H604.286V248.2H601.286ZM601.286 253.768V250.768H576.07V253.768V256.768H601.286V253.768ZM576.07 253.768H573.07V287.432H576.07H579.07V253.768H576.07ZM576.07 287.432V290.432H602.182V287.432V284.432H576.07V287.432ZM602.182 287.432H599.182V293H602.182H605.182V287.432H602.182ZM602.182 293V290H569.67V293V296H602.182V293ZM575.494 272.968H578.494V267.528H575.494H572.494V272.968H575.494ZM575.494 267.528V270.528H598.534V267.528V264.528H575.494V267.528ZM598.534 267.528H595.534V272.968H598.534H601.534V267.528H598.534ZM598.534 272.968V269.968H575.494V272.968V275.968H598.534V272.968ZM683.585 293H680.585V296H683.585V293ZM683.585 248.2V245.2H680.585V248.2H683.585ZM714.753 252.36L712.832 254.665L712.841 254.672L712.85 254.679L714.753 252.36ZM717.505 272.2L720.022 273.832L720.029 273.821L720.036 273.811L717.505 272.2ZM711.105 277.512L712.327 280.252V280.252L711.105 277.512ZM687.105 279.368L684.961 277.27L679.973 282.368H687.105V279.368ZM689.985 276.424H692.985V269.067L687.841 274.326L689.985 276.424ZM689.985 293V296H692.985V293H689.985ZM713.537 293L711.08 294.722L711.976 296H713.537V293ZM702.145 276.744V273.744H696.379L699.688 278.466L702.145 276.744ZM708.993 276.744L711.441 275.009L710.544 273.744H708.993V276.744ZM720.513 293V296H726.316L722.961 291.265L720.513 293ZM689.985 277.064L687.775 279.093L692.985 284.766V277.064H689.985ZM687.105 273.928V270.928H680.277L684.895 275.957L687.105 273.928ZM710.145 271.304L712.07 273.605L712.075 273.601L710.145 271.304ZM710.145 256.392L708.22 258.693L708.231 258.702L708.243 258.712L710.145 256.392ZM687.105 253.768L684.875 251.761L680.369 256.768H687.105V253.768ZM689.985 250.568H692.985V242.75L687.755 248.561L689.985 250.568ZM683.585 293H686.585V248.2H683.585H680.585V293H683.585ZM683.585 248.2V251.2H701.057V248.2V245.2H683.585V248.2ZM701.057 248.2V251.2C706.397 251.2 710.203 252.473 712.832 254.665L714.753 252.36L716.674 250.055C712.647 246.7 707.322 245.2 701.057 245.2V248.2ZM714.753 252.36L712.85 254.679C715.381 256.756 716.745 259.667 716.745 263.816H719.745H722.745C722.745 258.152 720.781 253.425 716.656 250.041L714.753 252.36ZM719.745 263.816H716.745C716.745 266.585 716.113 268.799 714.974 270.589L717.505 272.2L720.036 273.811C721.884 270.907 722.745 267.533 722.745 263.816H719.745ZM717.505 272.2L714.988 270.568C713.843 272.335 712.185 273.745 709.883 274.772L711.105 277.512L712.327 280.252C715.572 278.804 718.181 276.673 720.022 273.832L717.505 272.2ZM711.105 277.512L709.883 274.772C707.589 275.796 704.679 276.368 701.057 276.368V279.368V282.368C705.285 282.368 709.074 281.703 712.327 280.252L711.105 277.512ZM701.057 279.368V276.368H687.105V279.368V282.368H701.057V279.368ZM687.105 279.368L689.25 281.466L692.13 278.522L689.985 276.424L687.841 274.326L684.961 277.27L687.105 279.368ZM689.985 276.424H686.985V293H689.985H692.985V276.424H689.985ZM689.985 293V290H683.585V293V296H689.985V293ZM713.537 293L715.994 291.278L704.602 275.022L702.145 276.744L699.688 278.466L711.08 294.722L713.537 293ZM702.145 276.744V279.744H708.993V276.744V273.744H702.145V276.744ZM708.993 276.744L706.545 278.479L718.065 294.735L720.513 293L722.961 291.265L711.441 275.009L708.993 276.744ZM720.513 293V290H713.537V293V296H720.513V293ZM689.985 277.064L692.195 275.035L689.315 271.899L687.105 273.928L684.895 275.957L687.775 279.093L689.985 277.064ZM687.105 273.928V276.928H700.865V273.928V270.928H687.105V273.928ZM700.865 273.928V276.928C705.324 276.928 709.226 275.985 712.07 273.605L710.145 271.304L708.22 269.003C706.883 270.122 704.598 270.928 700.865 270.928V273.928ZM710.145 271.304L712.075 273.601C714.992 271.151 716.345 267.755 716.345 263.816H713.345H710.345C710.345 266.277 709.565 267.873 708.215 269.007L710.145 271.304ZM713.345 263.816H716.345C716.345 259.878 714.991 256.486 712.047 254.072L710.145 256.392L708.243 258.712C709.566 259.797 710.345 261.354 710.345 263.816H713.345ZM710.145 256.392L712.07 254.091C709.226 251.711 705.324 250.768 700.865 250.768V253.768V256.768C704.598 256.768 706.883 257.574 708.22 258.693L710.145 256.392ZM700.865 253.768V250.768H687.105V253.768V256.768H700.865V253.768ZM687.105 253.768L689.335 255.775L692.215 252.575L689.985 250.568L687.755 248.561L684.875 251.761L687.105 253.768ZM689.985 250.568H686.985V277.064H689.985H692.985V250.568H689.985ZM889.352 293H886.352V296H889.352V293ZM889.352 248.2V245.2H886.352V248.2H889.352ZM921.353 251.336L919.547 253.732L919.558 253.74L919.57 253.749L921.353 251.336ZM923.849 265.928L921.352 264.264L921.337 264.286L921.323 264.309L923.849 265.928ZM913.544 271.112L910.972 269.569L908.246 274.112H913.544V271.112ZM914.697 269.192V266.192H912.998L912.124 267.649L914.697 269.192ZM926.153 274.504L923.647 276.154L923.656 276.168L923.666 276.182L926.153 274.504ZM923.529 289.864L925.299 292.286L925.306 292.281L923.529 289.864ZM895.753 287.816H892.753V290.816H895.753V287.816ZM918.601 286.024L920.211 288.555V288.555L918.601 286.024ZM918.601 274.696L920.211 272.165V272.165L918.601 274.696ZM895.177 272.904H892.177V275.904H895.177V272.904ZM895.177 267.72V264.72H892.177V267.72H895.177ZM916.424 265.928L914.76 263.432V263.432L916.424 265.928ZM916.424 255.176L914.76 257.672V257.672L916.424 255.176ZM895.753 253.384V250.384H892.753V253.384H895.753ZM889.352 293H892.352V248.2H889.352H886.352V293H889.352ZM889.352 248.2V251.2H909.448V248.2V245.2H889.352V248.2ZM909.448 248.2V251.2C914.262 251.2 917.492 252.183 919.547 253.732L921.353 251.336L923.158 248.94C919.666 246.308 914.96 245.2 909.448 245.2V248.2ZM921.353 251.336L919.57 253.749C921.543 255.206 922.513 257.108 922.513 259.784H925.513H928.513C928.513 255.292 926.709 251.562 923.135 248.923L921.353 251.336ZM925.513 259.784H922.513C922.513 261.753 922.068 263.19 921.352 264.264L923.849 265.928L926.345 267.592C927.848 265.338 928.513 262.679 928.513 259.784H925.513ZM923.849 265.928L921.323 264.309C920.563 265.494 919.538 266.409 918.18 267.072L919.497 269.768L920.813 272.464C923.125 271.335 925.001 269.69 926.374 267.547L923.849 265.928ZM919.497 269.768L918.18 267.072C916.774 267.759 915.243 268.112 913.544 268.112V271.112V274.112C916.113 274.112 918.55 273.569 920.813 272.464L919.497 269.768ZM913.544 271.112L916.117 272.655L917.269 270.735L914.697 269.192L912.124 267.649L910.972 269.569L913.544 271.112ZM914.697 269.192V272.192C916.906 272.192 918.729 272.578 920.235 273.265L921.481 270.536L922.726 267.807C920.307 266.702 917.607 266.192 914.697 266.192V269.192ZM921.481 270.536L920.235 273.265C921.701 273.934 922.815 274.89 923.647 276.154L926.153 274.504L928.658 272.854C927.186 270.619 925.186 268.93 922.726 267.807L921.481 270.536ZM926.153 274.504L923.666 276.182C924.41 277.285 924.88 278.796 924.88 280.904H927.88H930.88C930.88 277.892 930.199 275.137 928.639 272.826L926.153 274.504ZM927.88 280.904H924.88C924.88 283.864 923.826 285.921 921.751 287.447L923.529 289.864L925.306 292.281C929.034 289.54 930.88 285.624 930.88 280.904H927.88ZM923.529 289.864L921.758 287.442C919.639 288.992 916.12 290 910.729 290V293V296C916.686 296 921.7 294.918 925.299 292.286L923.529 289.864ZM910.729 293V290H889.352V293V296H910.729V293ZM895.753 287.816V290.816H910.473V287.816V284.816H895.753V287.816ZM910.473 287.816V290.816C914.277 290.816 917.646 290.187 920.211 288.555L918.601 286.024L916.99 283.493C915.8 284.25 913.751 284.816 910.473 284.816V287.816ZM918.601 286.024L920.211 288.555C923.096 286.719 924.417 283.796 924.417 280.392H921.417H918.417C918.417 282.108 917.859 282.94 916.99 283.493L918.601 286.024ZM921.417 280.392H924.417C924.417 276.967 923.112 274.011 920.211 272.165L918.601 274.696L916.99 277.227C917.843 277.77 918.417 278.612 918.417 280.392H921.417ZM918.601 274.696L920.211 272.165C917.646 270.533 914.277 269.904 910.473 269.904V272.904V275.904C913.751 275.904 915.8 276.47 916.99 277.227L918.601 274.696ZM910.473 272.904V269.904H895.177V272.904V275.904H910.473V272.904ZM895.177 272.904H898.177V267.72H895.177H892.177V272.904H895.177ZM895.177 267.72V270.72H908.872V267.72V264.72H895.177V267.72ZM908.872 267.72V270.72C912.427 270.72 915.613 270.074 918.089 268.424L916.424 265.928L914.76 263.432C913.652 264.171 911.803 264.72 908.872 264.72V267.72ZM916.424 265.928L918.089 268.424C920.817 266.605 922.112 263.815 922.112 260.552H919.112H916.112C916.112 262.067 915.616 262.862 914.76 263.432L916.424 265.928ZM919.112 260.552H922.112C922.112 257.289 920.817 254.499 918.089 252.68L916.424 255.176L914.76 257.672C915.616 258.242 916.112 259.037 916.112 260.552H919.112ZM916.424 255.176L918.089 252.68C915.613 251.03 912.427 250.384 908.872 250.384V253.384V256.384C911.803 256.384 913.652 256.933 914.76 257.672L916.424 255.176ZM908.872 253.384V250.384H895.753V253.384V256.384H908.872V253.384ZM895.753 253.384H892.753V287.816H895.753H898.753V253.384H895.753ZM1001.98 293L999.251 291.762L997.332 296H1001.98V293ZM1022.27 248.2V245.2H1020.34L1019.54 246.962L1022.27 248.2ZM1028.61 248.2L1031.34 246.959L1030.54 245.2H1028.61V248.2ZM1048.96 293V296H1053.62L1051.69 291.759L1048.96 293ZM1042.24 293L1039.49 294.207L1040.28 296H1042.24V293ZM1024.13 251.784V248.784H1019.53L1021.38 252.991L1024.13 251.784ZM1026.69 251.784L1029.43 252.991L1031.28 248.784H1026.69V251.784ZM1008.58 293V296H1010.53L1011.32 294.207L1008.58 293ZM1010.62 281.8L1007.78 280.841L1006.44 284.8H1010.62V281.8ZM1012.35 276.68V273.68H1010.2L1009.51 275.721L1012.35 276.68ZM1037.57 276.68L1040.39 275.658L1039.67 273.68H1037.57V276.68ZM1039.42 281.8V284.8H1043.7L1042.24 280.778L1039.42 281.8ZM1001.98 293L1004.72 294.238L1025 249.438L1022.27 248.2L1019.54 246.962L999.251 291.762L1001.98 293ZM1022.27 248.2V251.2H1028.61V248.2V245.2H1022.27V248.2ZM1028.61 248.2L1025.88 249.441L1046.23 294.241L1048.96 293L1051.69 291.759L1031.34 246.959L1028.61 248.2ZM1048.96 293V290H1042.24V293V296H1048.96V293ZM1042.24 293L1044.99 291.793L1026.87 250.577L1024.13 251.784L1021.38 252.991L1039.49 294.207L1042.24 293ZM1024.13 251.784V254.784H1026.69V251.784V248.784H1024.13V251.784ZM1026.69 251.784L1023.94 250.577L1005.83 291.793L1008.58 293L1011.32 294.207L1029.43 252.991L1026.69 251.784ZM1008.58 293V290H1001.98V293V296H1008.58V293ZM1010.62 281.8L1013.47 282.759L1015.19 277.639L1012.35 276.68L1009.51 275.721L1007.78 280.841L1010.62 281.8ZM1012.35 276.68V279.68H1037.57V276.68V273.68H1012.35V276.68ZM1037.57 276.68L1034.75 277.702L1036.6 282.822L1039.42 281.8L1042.24 280.778L1040.39 275.658L1037.57 276.68ZM1039.42 281.8V278.8H1010.62V281.8V284.8H1039.42V281.8ZM1133.33 293H1130.33V296H1133.33V293ZM1133.33 253.768H1136.33V250.768H1133.33V253.768ZM1117.97 253.768H1114.97V256.768H1117.97V253.768ZM1117.97 248.2V245.2H1114.97V248.2H1117.97ZM1155.02 248.2H1158.02V245.2H1155.02V248.2ZM1155.02 253.768V256.768H1158.02V253.768H1155.02ZM1139.66 253.768V250.768H1136.66V253.768H1139.66ZM1139.66 293V296H1142.66V293H1139.66ZM1133.33 293H1136.33V253.768H1133.33H1130.33V293H1133.33ZM1133.33 253.768V250.768H1117.97V253.768V256.768H1133.33V253.768ZM1117.97 253.768H1120.97V248.2H1117.97H1114.97V253.768H1117.97ZM1117.97 248.2V251.2H1155.02V248.2V245.2H1117.97V248.2ZM1155.02 248.2H1152.02V253.768H1155.02H1158.02V248.2H1155.02ZM1155.02 253.768V250.768H1139.66V253.768V256.768H1155.02V253.768ZM1139.66 253.768H1136.66V293H1139.66H1142.66V253.768H1139.66ZM1139.66 293V290H1133.33V293V296H1139.66V293ZM1242.56 293H1239.56V296H1242.56V293ZM1242.56 253.768H1245.56V250.768H1242.56V253.768ZM1227.2 253.768H1224.2V256.768H1227.2V253.768ZM1227.2 248.2V245.2H1224.2V248.2H1227.2ZM1264.25 248.2H1267.25V245.2H1264.25V248.2ZM1264.25 253.768V256.768H1267.25V253.768H1264.25ZM1248.89 253.768V250.768H1245.89V253.768H1248.89ZM1248.89 293V296H1251.89V293H1248.89ZM1242.56 293H1245.56V253.768H1242.56H1239.56V293H1242.56ZM1242.56 253.768V250.768H1227.2V253.768V256.768H1242.56V253.768ZM1227.2 253.768H1230.2V248.2H1227.2H1224.2V253.768H1227.2ZM1227.2 248.2V251.2H1264.25V248.2V245.2H1227.2V248.2ZM1264.25 248.2H1261.25V253.768H1264.25H1267.25V248.2H1264.25ZM1264.25 253.768V250.768H1248.89V253.768V256.768H1264.25V253.768ZM1248.89 253.768H1245.89V293H1248.89H1251.89V253.768H1248.89ZM1248.89 293V290H1242.56V293V296H1248.89V293ZM1342.26 293H1339.26V296H1342.26V293ZM1342.26 248.2V245.2H1339.26V248.2H1342.26ZM1373.88 248.2H1376.88V245.2H1373.88V248.2ZM1373.88 253.768V256.768H1376.88V253.768H1373.88ZM1348.66 253.768V250.768H1345.66V253.768H1348.66ZM1348.66 287.432H1345.66V290.432H1348.66V287.432ZM1374.77 287.432H1377.77V284.432H1374.77V287.432ZM1374.77 293V296H1377.77V293H1374.77ZM1348.09 272.968H1345.09V275.968H1348.09V272.968ZM1348.09 267.528V264.528H1345.09V267.528H1348.09ZM1371.13 267.528H1374.13V264.528H1371.13V267.528ZM1371.13 272.968V275.968H1374.13V272.968H1371.13ZM1342.26 293H1345.26V248.2H1342.26H1339.26V293H1342.26ZM1342.26 248.2V251.2H1373.88V248.2V245.2H1342.26V248.2ZM1373.88 248.2H1370.88V253.768H1373.88H1376.88V248.2H1373.88ZM1373.88 253.768V250.768H1348.66V253.768V256.768H1373.88V253.768ZM1348.66 253.768H1345.66V287.432H1348.66H1351.66V253.768H1348.66ZM1348.66 287.432V290.432H1374.77V287.432V284.432H1348.66V287.432ZM1374.77 287.432H1371.77V293H1374.77H1377.77V287.432H1374.77ZM1374.77 293V290H1342.26V293V296H1374.77V293ZM1348.09 272.968H1351.09V267.528H1348.09H1345.09V272.968H1348.09ZM1348.09 267.528V270.528H1371.13V267.528V264.528H1348.09V267.528ZM1371.13 267.528H1368.13V272.968H1371.13H1374.13V267.528H1371.13ZM1371.13 272.968V269.968H1348.09V272.968V275.968H1371.13V272.968ZM1456.18 293H1453.18V296H1456.18V293ZM1456.18 248.2V245.2H1453.18V248.2H1456.18ZM1487.35 252.36L1485.42 254.665L1485.43 254.672L1485.44 254.679L1487.35 252.36ZM1490.1 272.2L1492.61 273.832L1492.62 273.821L1492.63 273.811L1490.1 272.2ZM1483.7 277.512L1484.92 280.252V280.252L1483.7 277.512ZM1459.7 279.368L1457.55 277.27L1452.57 282.368H1459.7V279.368ZM1462.58 276.424H1465.58V269.067L1460.43 274.326L1462.58 276.424ZM1462.58 293V296H1465.58V293H1462.58ZM1486.13 293L1483.67 294.722L1484.57 296H1486.13V293ZM1474.74 276.744V273.744H1468.97L1472.28 278.466L1474.74 276.744ZM1481.59 276.744L1484.03 275.009L1483.14 273.744H1481.59V276.744ZM1493.11 293V296H1498.91L1495.55 291.265L1493.11 293ZM1462.58 277.064L1460.37 279.093L1465.58 284.766V277.064H1462.58ZM1459.7 273.928V270.928H1452.87L1457.49 275.957L1459.7 273.928ZM1482.74 271.304L1484.66 273.605L1484.67 273.601L1482.74 271.304ZM1482.74 256.392L1480.81 258.693L1480.82 258.702L1480.84 258.712L1482.74 256.392ZM1459.7 253.768L1457.47 251.761L1452.96 256.768H1459.7V253.768ZM1462.58 250.568H1465.58V242.75L1460.35 248.561L1462.58 250.568ZM1456.18 293H1459.18V248.2H1456.18H1453.18V293H1456.18ZM1456.18 248.2V251.2H1473.65V248.2V245.2H1456.18V248.2ZM1473.65 248.2V251.2C1478.99 251.2 1482.8 252.473 1485.42 254.665L1487.35 252.36L1489.27 250.055C1485.24 246.7 1479.91 245.2 1473.65 245.2V248.2ZM1487.35 252.36L1485.44 254.679C1487.97 256.756 1489.34 259.667 1489.34 263.816H1492.34H1495.34C1495.34 258.152 1493.37 253.425 1489.25 250.041L1487.35 252.36ZM1492.34 263.816H1489.34C1489.34 266.585 1488.71 268.799 1487.57 270.589L1490.1 272.2L1492.63 273.811C1494.48 270.907 1495.34 267.533 1495.34 263.816H1492.34ZM1490.1 272.2L1487.58 270.568C1486.44 272.335 1484.78 273.745 1482.48 274.772L1483.7 277.512L1484.92 280.252C1488.16 278.804 1490.77 276.673 1492.61 273.832L1490.1 272.2ZM1483.7 277.512L1482.48 274.772C1480.18 275.796 1477.27 276.368 1473.65 276.368V279.368V282.368C1477.88 282.368 1481.67 281.703 1484.92 280.252L1483.7 277.512ZM1473.65 279.368V276.368H1459.7V279.368V282.368H1473.65V279.368ZM1459.7 279.368L1461.84 281.466L1464.72 278.522L1462.58 276.424L1460.43 274.326L1457.55 277.27L1459.7 279.368ZM1462.58 276.424H1459.58V293H1462.58H1465.58V276.424H1462.58ZM1462.58 293V290H1456.18V293V296H1462.58V293ZM1486.13 293L1488.59 291.278L1477.19 275.022L1474.74 276.744L1472.28 278.466L1483.67 294.722L1486.13 293ZM1474.74 276.744V279.744H1481.59V276.744V273.744H1474.74V276.744ZM1481.59 276.744L1479.14 278.479L1490.66 294.735L1493.11 293L1495.55 291.265L1484.03 275.009L1481.59 276.744ZM1493.11 293V290H1486.13V293V296H1493.11V293ZM1462.58 277.064L1464.79 275.035L1461.91 271.899L1459.7 273.928L1457.49 275.957L1460.37 279.093L1462.58 277.064ZM1459.7 273.928V276.928H1473.46V273.928V270.928H1459.7V273.928ZM1473.46 273.928V276.928C1477.92 276.928 1481.82 275.985 1484.66 273.605L1482.74 271.304L1480.81 269.003C1479.48 270.122 1477.19 270.928 1473.46 270.928V273.928ZM1482.74 271.304L1484.67 273.601C1487.58 271.151 1488.94 267.755 1488.94 263.816H1485.94H1482.94C1482.94 266.277 1482.16 267.873 1480.81 269.007L1482.74 271.304ZM1485.94 263.816H1488.94C1488.94 259.878 1487.58 256.486 1484.64 254.072L1482.74 256.392L1480.84 258.712C1482.16 259.797 1482.94 261.354 1482.94 263.816H1485.94ZM1482.74 256.392L1484.66 254.091C1481.82 251.711 1477.92 250.768 1473.46 250.768V253.768V256.768C1477.19 256.768 1479.48 257.574 1480.81 258.693L1482.74 256.392ZM1473.46 253.768V250.768H1459.7V253.768V256.768H1473.46V253.768ZM1459.7 253.768L1461.93 255.775L1464.81 252.575L1462.58 250.568L1460.35 248.561L1457.47 251.761L1459.7 253.768ZM1462.58 250.568H1459.58V277.064H1462.58H1465.58V250.568H1462.58ZM1583.91 293H1580.91V296H1583.91V293ZM1583.91 275.848L1586.72 274.805L1580.91 275.848H1583.91ZM1585.38 279.816L1582.82 281.377L1588.19 278.773L1585.38 279.816ZM1566.12 248.2V245.2H1560.78L1563.55 249.761L1566.12 248.2ZM1572.96 248.2L1575.53 246.644L1574.65 245.2H1572.96V248.2ZM1589.16 274.888V277.888H1594.49L1591.72 273.332L1589.16 274.888ZM1585.44 274.888L1582.88 273.327L1580.1 277.888H1585.44V274.888ZM1601.7 248.2V245.2H1600.02L1599.14 246.639L1601.7 248.2ZM1608.04 248.2L1610.6 249.757L1613.37 245.2H1608.04V248.2ZM1588.84 279.816L1586.01 278.813L1591.4 281.373L1588.84 279.816ZM1590.24 275.848H1593.24L1587.42 274.845L1590.24 275.848ZM1590.24 293V296H1593.24V293H1590.24ZM1583.91 293H1586.91V275.848H1583.91H1580.91V293H1583.91ZM1583.91 275.848L1581.1 276.891L1582.57 280.859L1585.38 279.816L1588.19 278.773L1586.72 274.805L1583.91 275.848ZM1585.38 279.816L1587.94 278.255L1568.68 246.639L1566.12 248.2L1563.55 249.761L1582.82 281.377L1585.38 279.816ZM1566.12 248.2V251.2H1572.96V248.2V245.2H1566.12V248.2ZM1572.96 248.2L1570.4 249.756L1586.59 276.444L1589.16 274.888L1591.72 273.332L1575.53 246.644L1572.96 248.2ZM1589.16 274.888V271.888H1585.44V274.888V277.888H1589.16V274.888ZM1585.44 274.888L1588.01 276.449L1604.26 249.761L1601.7 248.2L1599.14 246.639L1582.88 273.327L1585.44 274.888ZM1601.7 248.2V251.2H1608.04V248.2V245.2H1601.7V248.2ZM1608.04 248.2L1605.47 246.643L1586.27 278.259L1588.84 279.816L1591.4 281.373L1610.6 249.757L1608.04 248.2ZM1588.84 279.816L1591.66 280.819L1593.07 276.851L1590.24 275.848L1587.42 274.845L1586.01 278.813L1588.84 279.816ZM1590.24 275.848H1587.24V293H1590.24H1593.24V275.848H1590.24ZM1590.24 293V290H1583.91V293V296H1590.24V293Z" fill="black" mask="url(#path-11-outside-1_188_47)"/>
</svg>
